<mxfile host="app.diagrams.net" modified="2021-09-15T11:45:43.039Z" agent="5.0 (Windows NT 10.0; WOW64) AppleWebKit/537.36 (KHTML, like Gecko) Chrome/93.0.4577.82 Safari/537.36" etag="zWVsXDbkO_yAvjqMlQlJ" version="15.2.7" type="github">
  <diagram id="14p2Cj65Y2rK40kxL4Wj" name="Page-1">
    <mxGraphModel dx="2031" dy="1021" grid="1" gridSize="10" guides="1" tooltips="1" connect="1" arrows="1" fold="1" page="1" pageScale="1" pageWidth="850" pageHeight="1100" math="0" shadow="0">
      <root>
        <mxCell id="0" />
        <mxCell id="1" parent="0" />
        <mxCell id="yloUZSJw0SqkbMTlMlvL-44" value="" style="edgeStyle=orthogonalEdgeStyle;rounded=0;orthogonalLoop=1;jettySize=auto;html=1;" edge="1" parent="1" source="yloUZSJw0SqkbMTlMlvL-1" target="yloUZSJw0SqkbMTlMlvL-5">
          <mxGeometry relative="1" as="geometry" />
        </mxCell>
        <mxCell id="yloUZSJw0SqkbMTlMlvL-1" value="ACTION" style="rounded=0;whiteSpace=wrap;html=1;fillColor=#dae8fc;strokeColor=#6c8ebf;" vertex="1" parent="1">
          <mxGeometry x="40" y="100" width="120" height="60" as="geometry" />
        </mxCell>
        <mxCell id="yloUZSJw0SqkbMTlMlvL-7" style="edgeStyle=orthogonalEdgeStyle;rounded=0;orthogonalLoop=1;jettySize=auto;html=1;exitX=0.5;exitY=1;exitDx=0;exitDy=0;" edge="1" parent="1" source="yloUZSJw0SqkbMTlMlvL-2">
          <mxGeometry relative="1" as="geometry">
            <mxPoint x="380" y="260" as="targetPoint" />
          </mxGeometry>
        </mxCell>
        <mxCell id="yloUZSJw0SqkbMTlMlvL-2" value="INVERTER" style="rounded=0;whiteSpace=wrap;html=1;fillColor=#ffe6cc;strokeColor=#d79b00;" vertex="1" parent="1">
          <mxGeometry x="320" y="100" width="120" height="60" as="geometry" />
        </mxCell>
        <mxCell id="yloUZSJw0SqkbMTlMlvL-9" style="edgeStyle=orthogonalEdgeStyle;rounded=0;orthogonalLoop=1;jettySize=auto;html=1;exitX=1;exitY=0.5;exitDx=0;exitDy=0;entryX=0.5;entryY=0;entryDx=0;entryDy=0;" edge="1" parent="1" source="yloUZSJw0SqkbMTlMlvL-5" target="yloUZSJw0SqkbMTlMlvL-8">
          <mxGeometry relative="1" as="geometry" />
        </mxCell>
        <mxCell id="yloUZSJw0SqkbMTlMlvL-51" style="edgeStyle=orthogonalEdgeStyle;rounded=0;orthogonalLoop=1;jettySize=auto;html=1;exitX=0.5;exitY=1;exitDx=0;exitDy=0;entryX=0.5;entryY=0;entryDx=0;entryDy=0;" edge="1" parent="1" source="yloUZSJw0SqkbMTlMlvL-5" target="yloUZSJw0SqkbMTlMlvL-45">
          <mxGeometry relative="1" as="geometry" />
        </mxCell>
        <mxCell id="yloUZSJw0SqkbMTlMlvL-5" value="CHARGER PLUGGED" style="rounded=1;whiteSpace=wrap;html=1;" vertex="1" parent="1">
          <mxGeometry x="40" y="210" width="120" height="30" as="geometry" />
        </mxCell>
        <mxCell id="yloUZSJw0SqkbMTlMlvL-8" value="&lt;font style=&quot;font-size: 10px&quot;&gt;&lt;b&gt;Take&amp;nbsp; BMS Charge Mode&lt;/b&gt;&lt;br&gt;CAN TX ID:0x1 Bit 48-&amp;gt;1&lt;/font&gt;" style="rounded=1;whiteSpace=wrap;html=1;fillColor=#ffe6cc;strokeColor=#d79b00;" vertex="1" parent="1">
          <mxGeometry x="320" y="260" width="120" height="30" as="geometry" />
        </mxCell>
        <mxCell id="yloUZSJw0SqkbMTlMlvL-14" style="edgeStyle=orthogonalEdgeStyle;rounded=0;orthogonalLoop=1;jettySize=auto;html=1;exitX=0.5;exitY=1;exitDx=0;exitDy=0;" edge="1" parent="1" source="yloUZSJw0SqkbMTlMlvL-8" target="yloUZSJw0SqkbMTlMlvL-13">
          <mxGeometry relative="1" as="geometry">
            <mxPoint x="380" y="310" as="sourcePoint" />
          </mxGeometry>
        </mxCell>
        <mxCell id="yloUZSJw0SqkbMTlMlvL-15" value="NO" style="edgeStyle=orthogonalEdgeStyle;rounded=0;orthogonalLoop=1;jettySize=auto;html=1;exitX=0.5;exitY=1;exitDx=0;exitDy=0;entryX=0.5;entryY=0;entryDx=0;entryDy=0;" edge="1" parent="1" source="yloUZSJw0SqkbMTlMlvL-13" target="yloUZSJw0SqkbMTlMlvL-16">
          <mxGeometry x="-0.2" relative="1" as="geometry">
            <mxPoint x="380" y="450" as="targetPoint" />
            <mxPoint as="offset" />
          </mxGeometry>
        </mxCell>
        <mxCell id="yloUZSJw0SqkbMTlMlvL-23" value="YES" style="edgeStyle=orthogonalEdgeStyle;rounded=0;orthogonalLoop=1;jettySize=auto;html=1;exitX=0;exitY=0.5;exitDx=0;exitDy=0;entryX=0.5;entryY=0;entryDx=0;entryDy=0;" edge="1" parent="1" source="yloUZSJw0SqkbMTlMlvL-13" target="yloUZSJw0SqkbMTlMlvL-50">
          <mxGeometry relative="1" as="geometry">
            <mxPoint x="190" y="540" as="targetPoint" />
          </mxGeometry>
        </mxCell>
        <mxCell id="yloUZSJw0SqkbMTlMlvL-13" value="&lt;font style=&quot;font-size: 10px&quot;&gt;&lt;b&gt;Any Error in BMS?&lt;/b&gt;&lt;br&gt;CAN RX ID:0x11 SBit 40 ==4&lt;/font&gt;" style="rhombus;whiteSpace=wrap;html=1;fillColor=#ffe6cc;strokeColor=#d79b00;" vertex="1" parent="1">
          <mxGeometry x="295" y="350" width="170" height="60" as="geometry" />
        </mxCell>
        <mxCell id="yloUZSJw0SqkbMTlMlvL-19" value="YES" style="edgeStyle=orthogonalEdgeStyle;rounded=0;orthogonalLoop=1;jettySize=auto;html=1;entryX=0.5;entryY=0;entryDx=0;entryDy=0;exitX=1;exitY=0.5;exitDx=0;exitDy=0;" edge="1" parent="1" source="yloUZSJw0SqkbMTlMlvL-16" target="yloUZSJw0SqkbMTlMlvL-16">
          <mxGeometry x="-0.7946" relative="1" as="geometry">
            <mxPoint x="380" y="450" as="targetPoint" />
            <mxPoint x="485" y="530" as="sourcePoint" />
            <Array as="points">
              <mxPoint x="600" y="535" />
              <mxPoint x="600" y="450" />
              <mxPoint x="380" y="450" />
            </Array>
            <mxPoint as="offset" />
          </mxGeometry>
        </mxCell>
        <mxCell id="yloUZSJw0SqkbMTlMlvL-20" style="edgeStyle=orthogonalEdgeStyle;rounded=0;orthogonalLoop=1;jettySize=auto;html=1;exitX=0.5;exitY=1;exitDx=0;exitDy=0;" edge="1" parent="1" source="yloUZSJw0SqkbMTlMlvL-16">
          <mxGeometry relative="1" as="geometry">
            <mxPoint x="380" y="550" as="targetPoint" />
          </mxGeometry>
        </mxCell>
        <mxCell id="yloUZSJw0SqkbMTlMlvL-22" value="YES" style="edgeStyle=orthogonalEdgeStyle;rounded=0;orthogonalLoop=1;jettySize=auto;html=1;exitX=0.5;exitY=1;exitDx=0;exitDy=0;" edge="1" parent="1" source="yloUZSJw0SqkbMTlMlvL-16" target="yloUZSJw0SqkbMTlMlvL-21">
          <mxGeometry relative="1" as="geometry" />
        </mxCell>
        <mxCell id="yloUZSJw0SqkbMTlMlvL-16" value="&lt;font style=&quot;font-size: 10px&quot;&gt;&lt;b&gt;Precharge OK by BMS ?&lt;/b&gt;&lt;br&gt;CAN RX ID:0x11 SBit 40 ==2&lt;br&gt;CAN RX ID:123 SBit 48 == 1&lt;br&gt;CAN RX ID:123 SBit 40 ==1&lt;br&gt;&lt;/font&gt;" style="rhombus;whiteSpace=wrap;html=1;fillColor=#ffe6cc;strokeColor=#d79b00;" vertex="1" parent="1">
          <mxGeometry x="297.5" y="470" width="165" height="130" as="geometry" />
        </mxCell>
        <mxCell id="yloUZSJw0SqkbMTlMlvL-24" value="NO" style="edgeStyle=orthogonalEdgeStyle;rounded=0;orthogonalLoop=1;jettySize=auto;html=1;exitX=0;exitY=0.5;exitDx=0;exitDy=0;entryX=0.5;entryY=1;entryDx=0;entryDy=0;" edge="1" parent="1" source="yloUZSJw0SqkbMTlMlvL-21" target="yloUZSJw0SqkbMTlMlvL-50">
          <mxGeometry relative="1" as="geometry">
            <mxPoint x="190" y="560" as="targetPoint" />
          </mxGeometry>
        </mxCell>
        <mxCell id="yloUZSJw0SqkbMTlMlvL-25" style="edgeStyle=orthogonalEdgeStyle;rounded=0;orthogonalLoop=1;jettySize=auto;html=1;exitX=0.5;exitY=1;exitDx=0;exitDy=0;" edge="1" parent="1" source="yloUZSJw0SqkbMTlMlvL-21">
          <mxGeometry relative="1" as="geometry">
            <mxPoint x="380" y="800" as="targetPoint" />
          </mxGeometry>
        </mxCell>
        <mxCell id="yloUZSJw0SqkbMTlMlvL-27" value="YES" style="edgeStyle=orthogonalEdgeStyle;rounded=0;orthogonalLoop=1;jettySize=auto;html=1;exitX=0.5;exitY=1;exitDx=0;exitDy=0;entryX=0.5;entryY=0;entryDx=0;entryDy=0;" edge="1" parent="1" source="yloUZSJw0SqkbMTlMlvL-21" target="yloUZSJw0SqkbMTlMlvL-28">
          <mxGeometry x="-0.1429" relative="1" as="geometry">
            <mxPoint x="380" y="870" as="targetPoint" />
            <mxPoint y="1" as="offset" />
          </mxGeometry>
        </mxCell>
        <mxCell id="yloUZSJw0SqkbMTlMlvL-21" value="&lt;font style=&quot;font-size: 10px&quot;&gt;&lt;b&gt;Precharge OK by Inv?&lt;/b&gt;&lt;br&gt;CAN RX ID:0xC SBit 24&amp;nbsp;&lt;br&gt;Vdif &amp;lt; thd&lt;br&gt;CAN RX ID:0x1 SBit 48 ==2&lt;br&gt;&lt;/font&gt;" style="rhombus;whiteSpace=wrap;html=1;fillColor=#ffe6cc;strokeColor=#d79b00;" vertex="1" parent="1">
          <mxGeometry x="297.5" y="650" width="165" height="150" as="geometry" />
        </mxCell>
        <mxCell id="yloUZSJw0SqkbMTlMlvL-31" style="edgeStyle=orthogonalEdgeStyle;rounded=0;orthogonalLoop=1;jettySize=auto;html=1;exitX=0.5;exitY=1;exitDx=0;exitDy=0;entryX=0.5;entryY=0;entryDx=0;entryDy=0;" edge="1" parent="1" source="yloUZSJw0SqkbMTlMlvL-28" target="yloUZSJw0SqkbMTlMlvL-30">
          <mxGeometry relative="1" as="geometry" />
        </mxCell>
        <mxCell id="yloUZSJw0SqkbMTlMlvL-28" value="&lt;font style=&quot;font-size: 10px&quot;&gt;&lt;b&gt;Complete Precharge&lt;/b&gt;&lt;br&gt;CAN TX ID:0x1 SBit 40 -&amp;gt;1&lt;br&gt;CAN TX ID:0x1 SBit 48 -&amp;gt;1&lt;br&gt;&lt;/font&gt;" style="rounded=1;whiteSpace=wrap;html=1;fillColor=#ffe6cc;strokeColor=#d79b00;" vertex="1" parent="1">
          <mxGeometry x="315" y="840" width="130" height="70" as="geometry" />
        </mxCell>
        <mxCell id="yloUZSJw0SqkbMTlMlvL-32" style="edgeStyle=orthogonalEdgeStyle;rounded=0;orthogonalLoop=1;jettySize=auto;html=1;exitX=0;exitY=0.5;exitDx=0;exitDy=0;entryX=0.5;entryY=1;entryDx=0;entryDy=0;" edge="1" parent="1" source="yloUZSJw0SqkbMTlMlvL-30" target="yloUZSJw0SqkbMTlMlvL-50">
          <mxGeometry relative="1" as="geometry">
            <mxPoint x="190" y="560" as="targetPoint" />
          </mxGeometry>
        </mxCell>
        <mxCell id="yloUZSJw0SqkbMTlMlvL-33" value="YES" style="edgeStyle=orthogonalEdgeStyle;rounded=0;orthogonalLoop=1;jettySize=auto;html=1;exitX=0.5;exitY=1;exitDx=0;exitDy=0;entryX=0.5;entryY=0;entryDx=0;entryDy=0;" edge="1" parent="1" source="yloUZSJw0SqkbMTlMlvL-30" target="yloUZSJw0SqkbMTlMlvL-34">
          <mxGeometry relative="1" as="geometry">
            <mxPoint x="380" y="1090" as="targetPoint" />
          </mxGeometry>
        </mxCell>
        <mxCell id="yloUZSJw0SqkbMTlMlvL-30" value="&lt;font style=&quot;font-size: 10px&quot;&gt;&lt;b&gt;Is BMS in CHARGE mode?&lt;br&gt;&lt;/b&gt;CAN RX ID:0x11 SBit 40 ==3&lt;br&gt;&lt;/font&gt;" style="rhombus;whiteSpace=wrap;html=1;fillColor=#ffe6cc;strokeColor=#d79b00;" vertex="1" parent="1">
          <mxGeometry x="297.5" y="940" width="165" height="110" as="geometry" />
        </mxCell>
        <mxCell id="yloUZSJw0SqkbMTlMlvL-36" style="edgeStyle=orthogonalEdgeStyle;rounded=0;orthogonalLoop=1;jettySize=auto;html=1;exitX=0.5;exitY=1;exitDx=0;exitDy=0;entryX=0.5;entryY=0;entryDx=0;entryDy=0;" edge="1" parent="1" source="yloUZSJw0SqkbMTlMlvL-34" target="yloUZSJw0SqkbMTlMlvL-35">
          <mxGeometry relative="1" as="geometry" />
        </mxCell>
        <mxCell id="yloUZSJw0SqkbMTlMlvL-34" value="&lt;font style=&quot;font-size: 10px&quot;&gt;&lt;b&gt;Stage Signal Termination&lt;/b&gt;&lt;br&gt;CAN TX ID:0x1 SBit 40 -&amp;gt;1&lt;br&gt;CAN TX ID:0x1 SBit 48 -&amp;gt;0&lt;br&gt;&lt;/font&gt;" style="rounded=1;whiteSpace=wrap;html=1;fillColor=#ffe6cc;strokeColor=#d79b00;" vertex="1" parent="1">
          <mxGeometry x="315" y="1090" width="130" height="70" as="geometry" />
        </mxCell>
        <mxCell id="yloUZSJw0SqkbMTlMlvL-38" style="edgeStyle=orthogonalEdgeStyle;rounded=0;orthogonalLoop=1;jettySize=auto;html=1;exitX=0.5;exitY=1;exitDx=0;exitDy=0;entryX=0.5;entryY=0;entryDx=0;entryDy=0;" edge="1" parent="1" source="yloUZSJw0SqkbMTlMlvL-35" target="yloUZSJw0SqkbMTlMlvL-37">
          <mxGeometry relative="1" as="geometry" />
        </mxCell>
        <mxCell id="yloUZSJw0SqkbMTlMlvL-35" value="&lt;font style=&quot;font-size: 10px&quot;&gt;&lt;b&gt;Start CHARGE&lt;/b&gt;&lt;br&gt;CAN TX ID:0x70C 0xFF&lt;br&gt;&lt;/font&gt;" style="rounded=1;whiteSpace=wrap;html=1;fillColor=#ffe6cc;strokeColor=#d79b00;" vertex="1" parent="1">
          <mxGeometry x="315" y="1190" width="125" height="50" as="geometry" />
        </mxCell>
        <mxCell id="yloUZSJw0SqkbMTlMlvL-39" value="NO" style="edgeStyle=orthogonalEdgeStyle;rounded=0;orthogonalLoop=1;jettySize=auto;html=1;exitX=1;exitY=0.5;exitDx=0;exitDy=0;entryX=0.5;entryY=0;entryDx=0;entryDy=0;" edge="1" parent="1" source="yloUZSJw0SqkbMTlMlvL-37" target="yloUZSJw0SqkbMTlMlvL-37">
          <mxGeometry x="-0.8446" relative="1" as="geometry">
            <mxPoint x="380" y="1270" as="targetPoint" />
            <Array as="points">
              <mxPoint x="500" y="1365" />
              <mxPoint x="500" y="1250" />
              <mxPoint x="378" y="1250" />
            </Array>
            <mxPoint as="offset" />
          </mxGeometry>
        </mxCell>
        <mxCell id="yloUZSJw0SqkbMTlMlvL-40" style="edgeStyle=orthogonalEdgeStyle;rounded=0;orthogonalLoop=1;jettySize=auto;html=1;exitX=0.5;exitY=1;exitDx=0;exitDy=0;entryX=0.533;entryY=0.028;entryDx=0;entryDy=0;entryPerimeter=0;" edge="1" parent="1" source="yloUZSJw0SqkbMTlMlvL-37" target="yloUZSJw0SqkbMTlMlvL-43">
          <mxGeometry relative="1" as="geometry">
            <mxPoint x="377.4" y="1420" as="targetPoint" />
          </mxGeometry>
        </mxCell>
        <mxCell id="yloUZSJw0SqkbMTlMlvL-41" value="YES" style="edgeLabel;html=1;align=center;verticalAlign=middle;resizable=0;points=[];" vertex="1" connectable="0" parent="yloUZSJw0SqkbMTlMlvL-40">
          <mxGeometry x="-0.2721" y="1" relative="1" as="geometry">
            <mxPoint as="offset" />
          </mxGeometry>
        </mxCell>
        <mxCell id="yloUZSJw0SqkbMTlMlvL-37" value="&lt;font style=&quot;font-size: 10px&quot;&gt;&lt;b&gt;Battery CHARGED?&lt;/b&gt;&lt;br&gt;CAN RX ID:0x11 SBit 56==1&amp;nbsp;&lt;/font&gt;" style="rhombus;whiteSpace=wrap;html=1;fillColor=#ffe6cc;strokeColor=#d79b00;" vertex="1" parent="1">
          <mxGeometry x="295" y="1310" width="165" height="110" as="geometry" />
        </mxCell>
        <mxCell id="yloUZSJw0SqkbMTlMlvL-48" style="edgeStyle=orthogonalEdgeStyle;rounded=0;orthogonalLoop=1;jettySize=auto;html=1;exitX=0.5;exitY=1;exitDx=0;exitDy=0;entryX=0.5;entryY=0;entryDx=0;entryDy=0;" edge="1" parent="1" source="yloUZSJw0SqkbMTlMlvL-43" target="yloUZSJw0SqkbMTlMlvL-45">
          <mxGeometry relative="1" as="geometry" />
        </mxCell>
        <mxCell id="yloUZSJw0SqkbMTlMlvL-43" value="&lt;font style=&quot;font-size: 10px&quot;&gt;&lt;b&gt;Terminate CHARGE&lt;/b&gt;&lt;br&gt;CAN TX ID:0x70C 0x00&lt;br&gt;&lt;/font&gt;" style="rounded=1;whiteSpace=wrap;html=1;fillColor=#ffe6cc;strokeColor=#d79b00;" vertex="1" parent="1">
          <mxGeometry x="310" y="1500" width="125" height="50" as="geometry" />
        </mxCell>
        <mxCell id="yloUZSJw0SqkbMTlMlvL-45" value="CHARGER UNPLUGGED" style="rounded=1;whiteSpace=wrap;html=1;" vertex="1" parent="1">
          <mxGeometry x="40" y="1600" width="120" height="30" as="geometry" />
        </mxCell>
        <mxCell id="yloUZSJw0SqkbMTlMlvL-50" value="ERROR HANDLING" style="rounded=1;whiteSpace=wrap;html=1;fillColor=#f8cecc;strokeColor=#b85450;" vertex="1" parent="1">
          <mxGeometry x="130" y="520" width="120" height="60" as="geometry" />
        </mxCell>
      </root>
    </mxGraphModel>
  </diagram>
</mxfile>
